# xmcd
#
# Track frame offsets: 
#        150
#        18425
#        36879
#        51787
#        67201
#        80383
#        94790
#        106577
#        124894
#        142609
#        156112
#        170928
#
# Disc length: 2485 seconds
#
# Revision: 2
# Processed by: cddbd v1.5.2PL0 Copyright (c) Steve Scherf et al.
# Submitted via: ExactAudioCopy v0.99pb5
#
DISCID=9a09b30c
DTITLE=Niko Ahvonen - Eilen T‰n‰‰n Huomenna
DYEAR=2003
DGENRE=Soul
TTITLE0=Jokamiehenoikeus
TTITLE1=Aavekaupunki
TTITLE2=Kaikki Syntini
TTITLE3=Savurenkaita
TTITLE4=Eilen T‰n‰‰n Huomenna
TTITLE5=Hyv‰n Kodin Poika
TTITLE6=Vaikeastitavoiteltavii
TTITLE7=Piruparka
TTITLE8=Silta
TTITLE9=Yhdess‰ Vai Erikseen?
TTITLE10=Tuulesta Temmattu
TTITLE11=Pahaa Mielt‰
EXTD=
EXTT0=
EXTT1=
EXTT2=
EXTT3=
EXTT4=
EXTT5=
EXTT6=
EXTT7=
EXTT8=
EXTT9=
EXTT10=
EXTT11=
PLAYORDER=
